<?xml version="1.0" encoding="UTF-8" standalone="no"?>
<svg
   xmlns:dc="http://purl.org/dc/elements/1.1/"
   xmlns:cc="http://creativecommons.org/ns#"
   xmlns:rdf="http://www.w3.org/1999/02/22-rdf-syntax-ns#"
   xmlns:svg="http://www.w3.org/2000/svg"
   xmlns="http://www.w3.org/2000/svg"
   xmlns:sodipodi="http://sodipodi.sourceforge.net/DTD/sodipodi-0.dtd"
   xmlns:inkscape="http://www.inkscape.org/namespaces/inkscape"
   version="1.0"
   width="256"
   height="256"
   viewBox="0 0 191.99999 191.99999"
   preserveAspectRatio="xMidYMid meet"
   id="svg3692"
   sodipodi:docname="znax.svg"
   inkscape:version="0.92.1 r15371">
  <defs
     id="defs3696" />
  <sodipodi:namedview
     pagecolor="#ffffff"
     bordercolor="#666666"
     borderopacity="1"
     objecttolerance="10"
     gridtolerance="10"
     guidetolerance="10"
     inkscape:pageopacity="1"
     inkscape:pageshadow="2"
     inkscape:window-width="1920"
     inkscape:window-height="996"
     id="namedview3694"
     showgrid="false"
     inkscape:zoom="4"
     inkscape:cx="34.99613"
     inkscape:cy="175.09225"
     inkscape:window-x="-8"
     inkscape:window-y="-8"
     inkscape:window-maximized="1"
     inkscape:current-layer="layer1"
     units="px"
     showborder="false"
     inkscape:pagecheckerboard="false" />
  <metadata
     id="metadata3680">
Created by potrace 1.16, written by Peter Selinger 2001-2019
<rdf:RDF>
  <cc:Work
     rdf:about="">
    <dc:format>image/svg+xml</dc:format>
    <dc:type
       rdf:resource="http://purl.org/dc/dcmitype/StillImage" />
    <dc:title />
  </cc:Work>
</rdf:RDF>
</metadata>
  <g
     inkscape:groupmode="layer"
     id="layer1"
     inkscape:label="Layer 1"
     style="display:inline"
     transform="translate(0,145.99998)">
    <rect
       style="fill:#ffffff;fill-opacity:1;stroke-width:0.74999994"
       id="rect3898"
       width="208.49998"
       height="211.49998"
       x="-12.374999"
       y="-160.24998" />
    <g
       transform="matrix(0.42098737,0,0,-0.42605951,-4.3756867,43.588998)"
       id="g3690"
       style="fill:#000000;stroke:none">
      <g
         id="g3755">
        <path
           sodipodi:nodetypes="ccccccccc"
           id="path3682-7"
           d="m 66.527738,-137.95931 17.448318,77.863641 -78.2290455,3.98095 -0.276812,4.355953 -0.8419747,-40.901713 C 3.7862491,-123.33677 5.728011,-135.356 9.9378847,-139.19053 c 3.7888863,-3.40848 19.3654193,-4.68666 43.3616983,-3.83454 l 37.046889,1.27818 z"
           style="display:inline;fill:#1e66de;stroke-width:0.4235158"
           inkscape:connector-curvature="0"
           transform="matrix(2.3753682,0,0,-2.34709,10.393867,102.3073)" />
        <path
           sodipodi:nodetypes="ccccccccc"
           inkscape:connector-curvature="0"
           id="path3682"
           d="M 225,435 35.000002,424.99999 74.915664,237.23968 15,234 l 96,-2 c 72,-2 99,2 108,12 8,9 11,46 9,103 z"
           style="fill:#1e66de" />
      </g>
    </g>
    <g
       id="g3759">
      <path
         sodipodi:nodetypes="ccccccccc"
         inkscape:connector-curvature="0"
         id="path3684-0"
         d="m 182.56933,-65.984384 -2.4938,5.1303 -77.65306,4.698282 -0.4778,3.263624 -0.84197,-40.901713 c -0.84198,-30.676289 0.84197,-42.179889 5.05185,-46.014429 3.78888,-3.40847 19.36542,-4.68665 43.3617,-3.83453 l 37.04688,1.27817 z"
         style="display:inline;fill:#de781e;stroke:none;stroke-width:0.42351583" />
      <path
         sodipodi:nodetypes="cccccccc"
         inkscape:connector-curvature="0"
         id="path3684"
         d="m 186.56313,-142.36468 -79.9876,4.2606 37.28943,77.614855 -45.098741,4.380298 40.414791,0.852119 c 30.31109,0.852119 41.67775,-0.852119 45.46663,-5.112714 3.3679,-3.834536 4.63086,-19.598738 3.78889,-43.884128 z"
         style="display:inline;fill:#de781e;stroke:none;stroke-width:0.42351586" />
    </g>
    <path
       style="display:inline;fill:#d9d91a;stroke:none;stroke-width:0.42351583"
       d="M 88.367238,25.634307 80.248436,38.264603 5.4359399,41.780228 5.1175785,45.101509 4.2756038,4.1997963 C 3.433629,-26.476488 5.1175785,-37.980095 9.3274522,-41.814631 13.116339,-45.223107 28.692871,-46.501285 52.689151,-45.649166 l 37.046889,1.278178 z"
       id="path3686-5"
       inkscape:connector-curvature="0"
       sodipodi:nodetypes="ccccccccc" />
    <path
       style="display:inline;fill:#d9d91a;stroke:none;stroke-width:0.42351586"
       d="M 57.491537,-44.152546 5.7640649,41.592728 51.162861,38.254462 1.9391239,41.88476 42.353911,42.736879 c 30.311091,0.852119 41.67775,-0.852119 45.466636,-5.112714 3.367899,-3.834536 4.630861,-19.598738 3.788887,-43.8841297 L 89.73604,-44.370988 Z"
       id="path3686"
       inkscape:connector-curvature="0"
       sodipodi:nodetypes="ccccccccc" />
    <g
       id="g3746">
      <path
         sodipodi:nodetypes="ccccccccc"
         inkscape:connector-curvature="0"
         id="path3688"
         d="M 431.29398,205.9373 377.30201,90.693647 350.34458,10.760317 245,4 341,2 c 72,-2 99,2 108,12 8,9 11,46 9,103 l -4.45001,89.45001 z"
         style="display:inline;fill:#dc1c76;stroke:none"
         transform="matrix(0.42098737,0,0,-0.42605951,-4.3756867,43.589)" />
      <path
         sodipodi:nodetypes="ccccccccc"
         inkscape:connector-curvature="0"
         id="path3688-3"
         d="m 186.69433,24.509307 -38.98063,16.813798 -45.53909,0.453701 -0.22994,3.324703 -0.84197,-40.9017127 c -0.84198,-30.6762843 0.84197,-42.1798913 5.05185,-46.0144273 3.78888,-3.408476 19.36542,-4.686654 43.3617,-3.834535 l 37.04688,1.278178 z"
         style="display:inline;fill:#dc1c76;stroke:none;stroke-width:0.42351583" />
    </g>
  </g>
</svg>
